<svg width="27" height="24" viewBox="0 0 27 24" fill="none" xmlns="http://www.w3.org/2000/svg">
<g id="Group 2">
<ellipse id="Oval" cx="13.1298" cy="12" rx="13.1298" ry="12" fill="#FEF8EA"/>
<g id="Group 3">
<path id="Shape" fill-rule="evenodd" clip-rule="evenodd" d="M20.4369 7.07992H8.38046V6.57059C8.38046 6.42995 8.24879 6.31592 8.0864 6.31592H7.20422C7.04182 6.31592 6.91016 6.42995 6.91016 6.57059V18.6928C6.91016 18.8335 7.04182 18.9475 7.20422 18.9475H8.0864C8.24879 18.9475 8.38046 18.8335 8.38046 18.6928V15.7387H20.4369C20.5993 15.7387 20.731 15.6246 20.731 15.484V7.33459C20.731 7.19395 20.5993 7.07992 20.4369 7.07992ZM7.93018 18.5468H7.31941V6.82526H7.93018V18.5468ZM17.2022 10.136H20.1428V7.58926H17.2022V10.136ZM17.2022 12.6826V10.136H14.2617V7.58926H11.3211V10.136H8.38046V12.6826H11.3211V15.2293H14.2617V12.6826H17.2022ZM17.2022 12.6826V15.2293H20.1428V12.6826H17.2022Z" fill="black"/>
<path id="Path 2" fill-rule="evenodd" clip-rule="evenodd" d="M11.3213 10.1357V12.7042H14.2348V10.1357H11.3213Z" fill="black"/>
</g>
</g>
</svg>
