<svg width="70" height="19" viewBox="0 0 70 19" fill="none" xmlns="http://www.w3.org/2000/svg">
<path d="M65.5075 0.347559C65.1904 0.386297 63.2197 0.657471 61.0905 0.889906C30.0582 4.37643 16.6034 7.55304 4.19048 14.2549C1.63089 15.6495 0.883399 16.2306 0.498328 17.0829L0 18.1288L0.475677 18.245C0.747492 18.3225 2.06127 17.9351 3.39769 17.354C12.1184 13.6738 21.3375 10.8459 30.9643 8.83143C39.1187 7.12691 44.0567 6.4296 59.6181 4.76382C64.8053 4.18273 68.9052 3.29173 69.5394 2.59443C69.8792 2.20704 70.0377 1.70343 69.9924 1.16108C69.9245 0.347559 69.7886 0.308819 67.9991 0.270081C66.9345 0.23134 65.8246 0.270081 65.5075 0.347559Z" fill="#FF0000"/>
</svg>
