<svg width="209" height="28" viewBox="0 0 209 28" fill="none" xmlns="http://www.w3.org/2000/svg">
<path d="M193.737 0.209734C191.752 0.289238 181.469 0.607254 170.885 0.925268C124.338 2.39609 93.0067 4.58245 57.2249 8.91541C34.0119 11.698 8.51364 15.7925 2.37962 17.7403C-1.28876 18.8931 -0.56711 21 3.52223 21C5.50677 21 16.3315 19.6484 33.4707 17.2236C62.517 13.1291 85.7902 11.1018 145.326 7.48434C206.185 3.78741 208.651 3.58865 208.952 1.95882C209.373 -0.0287781 207.268 -0.26729 193.737 0.209734Z" fill="white"/>
<path d="M177.063 10.0927C176.22 10.1314 170.984 10.4026 165.326 10.635C82.869 14.1215 47.1176 17.2982 14.1347 24C7.33351 25.3946 5.34732 25.9757 4.32413 26.828L3 27.8739L4.26394 27.9902C4.98619 28.0676 8.47708 27.6802 12.0281 27.0992C35.2004 23.4189 59.6968 20.591 85.2765 18.5765C106.944 16.872 120.065 16.1747 161.414 14.5089C175.197 13.9278 186.091 13.0368 187.776 12.3395C188.679 11.9522 189.1 11.4485 188.98 10.9062C188.799 10.0927 188.438 10.0539 183.683 10.0152C180.855 9.97646 177.905 10.0152 177.063 10.0927Z" fill="white"/>
</svg>
